# xmcd
#
# Track frame offsets:
#	150
#	15865
#	36968
#	51676
#	65495
#	88510
#	102738
#	117687
#	132726
#	148692
#	163218
#	181512
#	195960
#	209551
#	225780
#	243556
#	259220
#	273967
#	289949
#	307774
#
# Disc length: 4272 seconds
#
# Revision: 0
# Processed by: cddbd v1.5.1PL0 Copyright (c) Steve Scherf et al.
# Submitted via: dBpowerAMP V4.0
#
DISCID=2910ae14
DTITLE=Various Artist - Bailão do Sul
DYEAR=2003
DGENRE=Bandinha
TTITLE0=Não São Palavras Lindas - MUSICAL CALMON
TTITLE1=Glória - GRUPO HELLO
TTITLE2=Festa Legal - BANDA LEGAL
TTITLE3=A Outra - SAN MARINO
TTITLE4=Artistas Convidados - MUSICAL JM
TTITLE5=Engata, Engata - MUSICAL CHAMPION
TTITLE6=Tum, Tum, Tum, Coração - 5ª AVENIDA
TTITLE7=Mulheres do Sul - MUSICAL CALMON
TTITLE8=Hey Tchê - GRUPO HELLO
TTITLE9=O Show é pra Você - BANDA LEGAL
TTITLE10=A Princesa e O Pobretão - MUSICAL JM
TTITLE11=Diga que Me Adora - 5ª AVENIDA
TTITLE12=O Bar da Tia - MUSICAL CHAMPION
TTITLE13=Eu Quero Tudo de Novo - MUSICAL CALMON
TTITLE14=Festa Boa - GRUPO HELLO
TTITLE15=Navegando na Internet - BANDA LEGAL
TTITLE16=Gordinha - MUSICAL JM
TTITLE17=Eu Preciso de Você - 5ª AVENIDA
TTITLE18=Eu tô Falando de Deus - GRUPO HELLO
TTITLE19=Peito Apaixonado - SAN MARINO
EXTD=
EXTT0=
EXTT1=
EXTT2=
EXTT3=
EXTT4=
EXTT5=
EXTT6=
EXTT7=
EXTT8=
EXTT9=
EXTT10=
EXTT11=
EXTT12=
EXTT13=
EXTT14=
EXTT15=
EXTT16=
EXTT17=
EXTT18=
EXTT19=
PLAYORDER=
